<mxfile host="Electron" agent="Mozilla/5.0 (Windows NT 10.0; Win64; x64) AppleWebKit/537.36 (KHTML, like Gecko) draw.io/24.7.5 Chrome/126.0.6478.183 Electron/31.3.0 Safari/537.36" version="24.7.5">
  <diagram name="Page-1" id="ptFbYKAxU91bxuszg5g9">
    <mxGraphModel dx="1540" dy="776" grid="1" gridSize="10" guides="1" tooltips="1" connect="1" arrows="1" fold="1" page="1" pageScale="1" pageWidth="1169" pageHeight="827" math="0" shadow="0">
      <root>
        <mxCell id="0" />
        <mxCell id="1" parent="0" />
        <mxCell id="aiNQITi3vGo1YbIPlcgx-4" value="sys_start" style="edgeStyle=orthogonalEdgeStyle;rounded=0;orthogonalLoop=1;jettySize=auto;html=1;entryX=0;entryY=0.5;entryDx=0;entryDy=0;fontStyle=1" edge="1" parent="1" source="aiNQITi3vGo1YbIPlcgx-2" target="aiNQITi3vGo1YbIPlcgx-3">
          <mxGeometry y="10" relative="1" as="geometry">
            <mxPoint as="offset" />
          </mxGeometry>
        </mxCell>
        <mxCell id="aiNQITi3vGo1YbIPlcgx-2" value="&lt;span&gt;&lt;font style=&quot;font-size: 26px;&quot;&gt;IDLE&lt;/font&gt;&lt;/span&gt;&lt;div&gt;&lt;span style=&quot;font-size: 18px;&quot;&gt;&lt;span&gt;-------------------------&lt;br&gt;&lt;/span&gt;&lt;/span&gt;&lt;div&gt;&lt;span style=&quot;font-size: 18px;&quot;&gt;&lt;span&gt;load = 0&lt;/span&gt;&lt;/span&gt;&lt;/div&gt;&lt;div&gt;&lt;span style=&quot;font-size: 18px;&quot;&gt;&lt;span&gt;intra = 0&lt;/span&gt;&lt;/span&gt;&lt;/div&gt;&lt;div&gt;&lt;span style=&quot;font-size: 18px;&quot;&gt;&lt;span&gt;ec = 0&lt;/span&gt;&lt;/span&gt;&lt;/div&gt;&lt;/div&gt;" style="ellipse;whiteSpace=wrap;html=1;aspect=fixed;fontStyle=1" vertex="1" parent="1">
          <mxGeometry x="80" y="200" width="160" height="160" as="geometry" />
        </mxCell>
        <mxCell id="aiNQITi3vGo1YbIPlcgx-3" value="&lt;span&gt;&lt;font style=&quot;font-size: 26px;&quot;&gt;INIT&lt;/font&gt;&lt;/span&gt;&lt;div&gt;&lt;span style=&quot;font-size: 18px;&quot;&gt;&lt;span&gt;-------------------------&lt;br&gt;&lt;/span&gt;&lt;/span&gt;&lt;div&gt;&lt;span style=&quot;font-size: 18px;&quot;&gt;&lt;span&gt;load = 0&lt;/span&gt;&lt;/span&gt;&lt;/div&gt;&lt;div&gt;&lt;span style=&quot;font-size: 18px;&quot;&gt;&lt;span&gt;intra = 0&lt;/span&gt;&lt;/span&gt;&lt;/div&gt;&lt;div&gt;&lt;span style=&quot;font-size: 18px;&quot;&gt;&lt;span&gt;ec = 0&lt;/span&gt;&lt;/span&gt;&lt;/div&gt;&lt;/div&gt;" style="ellipse;whiteSpace=wrap;html=1;aspect=fixed;fontStyle=1" vertex="1" parent="1">
          <mxGeometry x="320" y="200" width="160" height="160" as="geometry" />
        </mxCell>
        <mxCell id="aiNQITi3vGo1YbIPlcgx-8" value="load_done" style="edgeStyle=orthogonalEdgeStyle;rounded=0;orthogonalLoop=1;jettySize=auto;html=1;entryX=0;entryY=0.5;entryDx=0;entryDy=0;fontStyle=1" edge="1" parent="1" source="aiNQITi3vGo1YbIPlcgx-5" target="aiNQITi3vGo1YbIPlcgx-7">
          <mxGeometry y="10" relative="1" as="geometry">
            <mxPoint as="offset" />
          </mxGeometry>
        </mxCell>
        <mxCell id="aiNQITi3vGo1YbIPlcgx-5" value="&lt;span&gt;&lt;font style=&quot;font-size: 26px;&quot;&gt;LOAD&lt;/font&gt;&lt;/span&gt;&lt;div&gt;&lt;span style=&quot;font-size: 18px;&quot;&gt;&lt;span&gt;-------------------------&lt;br&gt;&lt;/span&gt;&lt;/span&gt;&lt;div&gt;&lt;span style=&quot;font-size: 18px;&quot;&gt;&lt;span&gt;load = 1&lt;/span&gt;&lt;/span&gt;&lt;/div&gt;&lt;div&gt;&lt;span style=&quot;font-size: 18px;&quot;&gt;&lt;span&gt;intra = 0&lt;/span&gt;&lt;/span&gt;&lt;/div&gt;&lt;div&gt;&lt;span style=&quot;font-size: 18px;&quot;&gt;&lt;span&gt;ec = 0&lt;/span&gt;&lt;/span&gt;&lt;/div&gt;&lt;/div&gt;" style="ellipse;whiteSpace=wrap;html=1;aspect=fixed;fontStyle=1" vertex="1" parent="1">
          <mxGeometry x="560" y="200" width="160" height="160" as="geometry" />
        </mxCell>
        <mxCell id="aiNQITi3vGo1YbIPlcgx-6" value="" style="endArrow=classic;html=1;rounded=0;entryX=0;entryY=0.5;entryDx=0;entryDy=0;exitX=1;exitY=0.5;exitDx=0;exitDy=0;fontStyle=1" edge="1" parent="1" source="aiNQITi3vGo1YbIPlcgx-3" target="aiNQITi3vGo1YbIPlcgx-5">
          <mxGeometry width="50" height="50" relative="1" as="geometry">
            <mxPoint x="470" y="320" as="sourcePoint" />
            <mxPoint x="520" y="270" as="targetPoint" />
          </mxGeometry>
        </mxCell>
        <mxCell id="aiNQITi3vGo1YbIPlcgx-14" value="load_done &amp;amp;&amp;amp; intra_done" style="edgeStyle=orthogonalEdgeStyle;rounded=0;orthogonalLoop=1;jettySize=auto;html=1;fontStyle=1" edge="1" parent="1" source="aiNQITi3vGo1YbIPlcgx-7" target="aiNQITi3vGo1YbIPlcgx-9">
          <mxGeometry relative="1" as="geometry" />
        </mxCell>
        <mxCell id="aiNQITi3vGo1YbIPlcgx-7" value="&lt;span style=&quot;&quot;&gt;&lt;font style=&quot;font-size: 26px;&quot;&gt;I_S0&lt;/font&gt;&lt;/span&gt;&lt;br&gt;&lt;div&gt;&lt;span style=&quot;font-size: 18px;&quot;&gt;&lt;span&gt;-------------------------&lt;br&gt;&lt;/span&gt;&lt;/span&gt;&lt;div&gt;&lt;span style=&quot;font-size: 18px;&quot;&gt;&lt;span&gt;load = 1&lt;/span&gt;&lt;/span&gt;&lt;/div&gt;&lt;div&gt;&lt;span style=&quot;font-size: 18px;&quot;&gt;&lt;span&gt;intra = 1&lt;/span&gt;&lt;/span&gt;&lt;/div&gt;&lt;div&gt;&lt;span style=&quot;font-size: 18px;&quot;&gt;&lt;span&gt;ec = 0&lt;/span&gt;&lt;/span&gt;&lt;/div&gt;&lt;/div&gt;" style="ellipse;whiteSpace=wrap;html=1;aspect=fixed;fontStyle=1" vertex="1" parent="1">
          <mxGeometry x="880" y="200" width="160" height="160" as="geometry" />
        </mxCell>
        <mxCell id="aiNQITi3vGo1YbIPlcgx-11" value="load_done &amp;amp;&amp;amp;&lt;div&gt;intra_done &amp;amp;&amp;amp;&amp;nbsp;&lt;/div&gt;&lt;div&gt;ec_done &amp;amp;&amp;amp;&lt;/div&gt;&lt;div&gt;&lt;br&gt;&lt;/div&gt;&lt;div&gt;mb_x_load = sys_x_total &amp;amp;&amp;amp;&lt;/div&gt;&lt;div&gt;mb_y_load = sys_y_total&lt;/div&gt;" style="edgeStyle=orthogonalEdgeStyle;rounded=0;orthogonalLoop=1;jettySize=auto;html=1;entryX=1;entryY=0.5;entryDx=0;entryDy=0;labelBackgroundColor=none;fontStyle=1" edge="1" parent="1" source="aiNQITi3vGo1YbIPlcgx-9" target="aiNQITi3vGo1YbIPlcgx-10">
          <mxGeometry y="-10" relative="1" as="geometry">
            <mxPoint as="offset" />
          </mxGeometry>
        </mxCell>
        <mxCell id="aiNQITi3vGo1YbIPlcgx-9" value="&lt;span style=&quot;&quot;&gt;&lt;font style=&quot;font-size: 26px;&quot;&gt;I_S1&lt;/font&gt;&lt;/span&gt;&lt;br&gt;&lt;div&gt;&lt;span style=&quot;font-size: 18px;&quot;&gt;&lt;span&gt;-------------------------&lt;br&gt;&lt;/span&gt;&lt;/span&gt;&lt;div&gt;&lt;span style=&quot;font-size: 18px;&quot;&gt;&lt;span&gt;load = 1&lt;/span&gt;&lt;/span&gt;&lt;/div&gt;&lt;div&gt;&lt;span style=&quot;font-size: 18px;&quot;&gt;&lt;span&gt;intra = 1&lt;/span&gt;&lt;/span&gt;&lt;/div&gt;&lt;div&gt;&lt;span style=&quot;font-size: 18px;&quot;&gt;&lt;span&gt;ec = 1&lt;/span&gt;&lt;/span&gt;&lt;/div&gt;&lt;/div&gt;" style="ellipse;whiteSpace=wrap;html=1;aspect=fixed;fontStyle=1" vertex="1" parent="1">
          <mxGeometry x="880" y="440" width="160" height="160" as="geometry" />
        </mxCell>
        <mxCell id="aiNQITi3vGo1YbIPlcgx-18" value="intra_done &amp;amp;&amp;amp;&lt;div&gt;ec_done&lt;/div&gt;" style="edgeStyle=orthogonalEdgeStyle;rounded=0;orthogonalLoop=1;jettySize=auto;html=1;entryX=1;entryY=0.5;entryDx=0;entryDy=0;labelBackgroundColor=none;fontStyle=1" edge="1" parent="1" source="aiNQITi3vGo1YbIPlcgx-10" target="aiNQITi3vGo1YbIPlcgx-12">
          <mxGeometry relative="1" as="geometry">
            <mxPoint as="offset" />
          </mxGeometry>
        </mxCell>
        <mxCell id="aiNQITi3vGo1YbIPlcgx-10" value="&lt;span style=&quot;&quot;&gt;&lt;font style=&quot;font-size: 26px;&quot;&gt;I_S2&lt;/font&gt;&lt;/span&gt;&lt;br&gt;&lt;div&gt;&lt;span style=&quot;font-size: 18px;&quot;&gt;&lt;span&gt;-------------------------&lt;br&gt;&lt;/span&gt;&lt;/span&gt;&lt;div&gt;&lt;span style=&quot;font-size: 18px;&quot;&gt;&lt;span&gt;load = 0&lt;/span&gt;&lt;/span&gt;&lt;/div&gt;&lt;div&gt;&lt;span style=&quot;font-size: 18px;&quot;&gt;&lt;span&gt;intra = 1&lt;/span&gt;&lt;/span&gt;&lt;/div&gt;&lt;div&gt;&lt;span style=&quot;font-size: 18px;&quot;&gt;&lt;span&gt;ec = 1&lt;/span&gt;&lt;/span&gt;&lt;/div&gt;&lt;/div&gt;" style="ellipse;whiteSpace=wrap;html=1;aspect=fixed;fontStyle=1" vertex="1" parent="1">
          <mxGeometry x="560" y="440" width="160" height="160" as="geometry" />
        </mxCell>
        <mxCell id="aiNQITi3vGo1YbIPlcgx-19" value="ec_done" style="edgeStyle=orthogonalEdgeStyle;rounded=0;orthogonalLoop=1;jettySize=auto;html=1;entryX=1;entryY=0.5;entryDx=0;entryDy=0;fontStyle=1" edge="1" parent="1" source="aiNQITi3vGo1YbIPlcgx-12" target="aiNQITi3vGo1YbIPlcgx-13">
          <mxGeometry y="-10" relative="1" as="geometry">
            <mxPoint as="offset" />
          </mxGeometry>
        </mxCell>
        <mxCell id="aiNQITi3vGo1YbIPlcgx-12" value="&lt;span style=&quot;&quot;&gt;&lt;font style=&quot;font-size: 26px;&quot;&gt;I_S3&lt;/font&gt;&lt;/span&gt;&lt;br&gt;&lt;div&gt;&lt;span style=&quot;font-size: 18px;&quot;&gt;&lt;span&gt;-------------------------&lt;br&gt;&lt;/span&gt;&lt;/span&gt;&lt;div&gt;&lt;span style=&quot;font-size: 18px;&quot;&gt;&lt;span&gt;load = 0&lt;/span&gt;&lt;/span&gt;&lt;/div&gt;&lt;div&gt;&lt;span style=&quot;font-size: 18px;&quot;&gt;&lt;span&gt;intra = 0&lt;/span&gt;&lt;/span&gt;&lt;/div&gt;&lt;div&gt;&lt;span style=&quot;font-size: 18px;&quot;&gt;&lt;span&gt;ec = 1&lt;/span&gt;&lt;/span&gt;&lt;/div&gt;&lt;/div&gt;" style="ellipse;whiteSpace=wrap;html=1;aspect=fixed;fontStyle=1" vertex="1" parent="1">
          <mxGeometry x="320" y="440" width="160" height="160" as="geometry" />
        </mxCell>
        <mxCell id="aiNQITi3vGo1YbIPlcgx-22" value="bs_empty" style="edgeStyle=orthogonalEdgeStyle;rounded=0;orthogonalLoop=1;jettySize=auto;html=1;entryX=0.5;entryY=1;entryDx=0;entryDy=0;fontStyle=1" edge="1" parent="1" source="aiNQITi3vGo1YbIPlcgx-13" target="aiNQITi3vGo1YbIPlcgx-2">
          <mxGeometry relative="1" as="geometry" />
        </mxCell>
        <mxCell id="aiNQITi3vGo1YbIPlcgx-13" value="&lt;span style=&quot;&quot;&gt;&lt;font style=&quot;font-size: 26px;&quot;&gt;STORE&lt;/font&gt;&lt;/span&gt;&lt;br&gt;&lt;div&gt;&lt;span style=&quot;font-size: 18px;&quot;&gt;&lt;span&gt;-------------------------&lt;br&gt;&lt;/span&gt;&lt;/span&gt;&lt;div&gt;&lt;span style=&quot;font-size: 18px;&quot;&gt;&lt;span&gt;load = 0&lt;/span&gt;&lt;/span&gt;&lt;/div&gt;&lt;div&gt;&lt;span style=&quot;font-size: 18px;&quot;&gt;&lt;span&gt;intra = 0&lt;/span&gt;&lt;/span&gt;&lt;/div&gt;&lt;div&gt;&lt;span style=&quot;font-size: 18px;&quot;&gt;&lt;span&gt;ec = 0&lt;/span&gt;&lt;/span&gt;&lt;/div&gt;&lt;/div&gt;" style="ellipse;whiteSpace=wrap;html=1;aspect=fixed;fontStyle=1" vertex="1" parent="1">
          <mxGeometry x="80" y="440" width="160" height="160" as="geometry" />
        </mxCell>
        <mxCell id="aiNQITi3vGo1YbIPlcgx-15" value="" style="curved=1;endArrow=classic;html=1;rounded=0;entryX=1;entryY=0;entryDx=0;entryDy=0;exitX=1;exitY=1;exitDx=0;exitDy=0;fontStyle=1" edge="1" parent="1" source="aiNQITi3vGo1YbIPlcgx-9" target="aiNQITi3vGo1YbIPlcgx-9">
          <mxGeometry width="50" height="50" relative="1" as="geometry">
            <mxPoint x="1070" y="550" as="sourcePoint" />
            <mxPoint x="1120" y="500" as="targetPoint" />
            <Array as="points">
              <mxPoint x="1090" y="600" />
              <mxPoint x="1090" y="440" />
            </Array>
          </mxGeometry>
        </mxCell>
        <mxCell id="aiNQITi3vGo1YbIPlcgx-17" value="load_done &amp;amp;&amp;amp;&lt;div&gt;intra_done &amp;amp;&amp;amp;&amp;nbsp;&lt;/div&gt;&lt;div&gt;ec_done&amp;nbsp;&lt;/div&gt;&lt;div&gt;&lt;div&gt;mb_x_load != sys_x_total &amp;amp;&amp;amp;&lt;/div&gt;&lt;div&gt;mb_y_load != sys_y_total&lt;/div&gt;&lt;/div&gt;" style="edgeLabel;html=1;align=center;verticalAlign=middle;resizable=0;points=[];labelBackgroundColor=none;fontStyle=1" vertex="1" connectable="0" parent="aiNQITi3vGo1YbIPlcgx-15">
          <mxGeometry x="-0.0048" y="1" relative="1" as="geometry">
            <mxPoint x="-19" y="99" as="offset" />
          </mxGeometry>
        </mxCell>
        <mxCell id="aiNQITi3vGo1YbIPlcgx-20" value="!bs_empty" style="curved=1;endArrow=classic;html=1;rounded=0;entryX=1;entryY=0;entryDx=0;entryDy=0;exitX=1;exitY=1;exitDx=0;exitDy=0;fontStyle=1" edge="1" parent="1">
          <mxGeometry width="50" height="50" relative="1" as="geometry">
            <mxPoint x="103" y="463" as="sourcePoint" />
            <mxPoint x="103" y="577" as="targetPoint" />
            <Array as="points">
              <mxPoint x="30" y="440" />
              <mxPoint x="30" y="600" />
            </Array>
          </mxGeometry>
        </mxCell>
      </root>
    </mxGraphModel>
  </diagram>
</mxfile>
